# xmcd CD database file
#
# Track frame offsets:
#	150
#	20822
#	37957
#	55627
#	71615
#	89012
#	106102
#	125117
#	142147
#	160545
#	176847
#	194870
#
# Disc length: 2884 seconds
#
# Revision: 0
# Processed by: cddbd v1.4PL0 Copyright (c) Steve Scherf et al.
# Submitted via: CDex 1.50Beta7
#
DISCID=b10b420c
DTITLE=Paul Thorn - Mission Temple Fireworks Stand
DYEAR=2002
DGENRE=Country
TTITLE0=Everybody Looks Good at the Starting Line
TTITLE1=Rise Up
TTITLE2=Downtown Babylon
TTITLE3=Mission Temple Fireworks Stand
TTITLE4=Things Left Undone
TTITLE5=There's Something Out There
TTITLE6=Even Heroes Die
TTITLE7=Ain't Livin' In Sin No More
TTITLE8=Sister Ruby's House of Prayer
TTITLE9=Angel Too Soon
TTITLE10=Nothin' but the Devil
TTITLE11=I'm a Lucky Man
EXTD=YEAR: 2002
EXTT0=
EXTT1=
EXTT2=
EXTT3=
EXTT4=
EXTT5=
EXTT6=
EXTT7=
EXTT8=
EXTT9=
EXTT10=
EXTT11=
PLAYORDER=
